<mxfile host="app.diagrams.net" modified="2022-01-05T14:36:48.131Z" agent="5.0 (Windows)" etag="SLsb1GrksqP40w5hbkRF" version="16.2.2" type="github">
  <diagram id="3wKTcyzwgIaSXrJznxjG" name="Page-1">
    <mxGraphModel dx="1479" dy="963" grid="1" gridSize="10" guides="1" tooltips="1" connect="1" arrows="1" fold="1" page="1" pageScale="1" pageWidth="850" pageHeight="1100" math="0" shadow="0">
      <root>
        <mxCell id="0" />
        <mxCell id="1" parent="0" />
        <mxCell id="NIy-VSbfB4l6uZF9m4ES-1" value="" style="whiteSpace=wrap;html=1;aspect=fixed;shadow=0;strokeWidth=5;" parent="1" vertex="1">
          <mxGeometry x="280" y="350" width="300" height="300" as="geometry" />
        </mxCell>
        <mxCell id="NIy-VSbfB4l6uZF9m4ES-2" value="(-1.0, -1.0)" style="text;html=1;strokeColor=none;fillColor=none;align=center;verticalAlign=middle;whiteSpace=wrap;rounded=0;shadow=0;" parent="1" vertex="1">
          <mxGeometry x="290" y="360" width="60" height="30" as="geometry" />
        </mxCell>
        <mxCell id="NIy-VSbfB4l6uZF9m4ES-3" value="(1.0, -1.0)" style="text;html=1;strokeColor=none;fillColor=none;align=center;verticalAlign=middle;whiteSpace=wrap;rounded=0;shadow=0;" parent="1" vertex="1">
          <mxGeometry x="510" y="360" width="60" height="30" as="geometry" />
        </mxCell>
        <mxCell id="NIy-VSbfB4l6uZF9m4ES-4" value="(0.0, -1.0)" style="text;html=1;strokeColor=none;fillColor=none;align=center;verticalAlign=middle;whiteSpace=wrap;rounded=0;shadow=0;" parent="1" vertex="1">
          <mxGeometry x="400" y="360" width="60" height="30" as="geometry" />
        </mxCell>
        <mxCell id="IkCIdpbk3tx-LVLiVhAg-1" value="(-1.0, 0.0)" style="text;html=1;strokeColor=none;fillColor=none;align=center;verticalAlign=middle;whiteSpace=wrap;rounded=0;shadow=0;" vertex="1" parent="1">
          <mxGeometry x="290" y="485" width="60" height="30" as="geometry" />
        </mxCell>
        <mxCell id="IkCIdpbk3tx-LVLiVhAg-2" value="(0.0, 0.0)" style="text;html=1;strokeColor=none;fillColor=none;align=center;verticalAlign=middle;whiteSpace=wrap;rounded=0;shadow=0;" vertex="1" parent="1">
          <mxGeometry x="395" y="485" width="60" height="30" as="geometry" />
        </mxCell>
        <mxCell id="IkCIdpbk3tx-LVLiVhAg-3" value="(1.0, 0.0)" style="text;html=1;strokeColor=none;fillColor=none;align=center;verticalAlign=middle;whiteSpace=wrap;rounded=0;shadow=0;" vertex="1" parent="1">
          <mxGeometry x="510" y="485" width="60" height="30" as="geometry" />
        </mxCell>
        <mxCell id="IkCIdpbk3tx-LVLiVhAg-6" value="(-1.0, 1.0)" style="text;html=1;strokeColor=none;fillColor=none;align=center;verticalAlign=middle;whiteSpace=wrap;rounded=0;shadow=0;" vertex="1" parent="1">
          <mxGeometry x="290" y="610" width="60" height="30" as="geometry" />
        </mxCell>
        <mxCell id="IkCIdpbk3tx-LVLiVhAg-7" value="(0.0, 1.0)" style="text;html=1;strokeColor=none;fillColor=none;align=center;verticalAlign=middle;whiteSpace=wrap;rounded=0;shadow=0;" vertex="1" parent="1">
          <mxGeometry x="395" y="610" width="60" height="30" as="geometry" />
        </mxCell>
        <mxCell id="IkCIdpbk3tx-LVLiVhAg-8" value="(1.0, 1.0)" style="text;html=1;strokeColor=none;fillColor=none;align=center;verticalAlign=middle;whiteSpace=wrap;rounded=0;shadow=0;" vertex="1" parent="1">
          <mxGeometry x="510" y="610" width="60" height="30" as="geometry" />
        </mxCell>
      </root>
    </mxGraphModel>
  </diagram>
</mxfile>
